<svg version="1.1" xmlns="http://www.w3.org/2000/svg" viewBox="0 0 1520.5863192182414 1340" width="1520.5863192182414" height="1340">
  <!-- svg-source:excalidraw -->
  
  <defs>
    <style class="style-fonts">
      @font-face {
        font-family: "Virgil";
        src: url("https://excalidraw.com/Virgil.woff2");
      }
      @font-face {
        font-family: "Cascadia";
        src: url("https://excalidraw.com/Cascadia.woff2");
      }
    </style>
  </defs>
  <rect x="0" y="0" width="1520.5863192182414" height="1340" fill="#ffffff"></rect><g stroke-linecap="round" transform="translate(10 25.048859934853454) rotate(0 750.2931596091207 646.026058631922)"><path d="M29.23 3.81 L1470.63 -0.15 L1482.81 5.89 L1489.71 5.95 L1501.18 18.55 L1498.52 33.87 L1503.27 1258.95 L1500.18 1276.54 L1495.99 1284.58 L1482.38 1287.12 L1468.81 1291.48 L30.81 1293.4 L19.19 1292.12 L7.44 1281.54 L0.91 1273.36 L1.09 1262.15 L-1.47 34.49 L-0.32 16.22 L5.78 7.35 L15.73 5.32 L30.95 -1.89" stroke="none" stroke-width="0" fill="#ffffff"></path><path d="M32 0 M32 0 C329.97 10.12, 629.46 8.52, 1468.59 0 M32 0 C471.51 -0.01, 912.14 -0.36, 1468.59 0 M1468.59 0 C1486.24 3.24, 1499.53 12.61, 1500.59 32 M1468.59 0 C1491.2 1.94, 1498.15 6.62, 1500.59 32 M1500.59 32 C1500.98 320.85, 1500.98 605.87, 1500.59 1260.05 M1500.59 32 C1505.19 317.42, 1504.82 601.43, 1500.59 1260.05 M1500.59 1260.05 C1500.64 1281.76, 1491.88 1293.51, 1468.59 1292.05 M1500.59 1260.05 C1501.12 1280.18, 1485.5 1295.56, 1468.59 1292.05 M1468.59 1292.05 C956.89 1290.67, 444.29 1290.1, 32 1292.05 M1468.59 1292.05 C1064.72 1289.04, 661.8 1288.14, 32 1292.05 M32 1292.05 C6.98 1290.19, -1.48 1281.67, 0 1260.05 M32 1292.05 C8.84 1295.25, 2.24 1279.23, 0 1260.05 M0 1260.05 C1.14 910.13, 1.25 561.39, 0 32 M0 1260.05 C-0.49 929.92, -0.81 597.93, 0 32 M0 32 C-3.9 10.17, 11.5 -3.56, 32 0 M0 32 C3.38 7.89, 12.58 4.45, 32 0" stroke="#000000" stroke-width="4" fill="none"></path></g><g stroke-linecap="round" transform="translate(186.28664495114026 10) rotate(0 574.0065146579805 660)"><path d="M29.73 3.32 L1114.97 -1.89 L1126.32 3.33 L1136.91 7.38 L1149.05 20.58 L1147.05 32.25 L1146.14 1287.88 L1143.34 1300.22 L1140.33 1308.45 L1126.33 1321.24 L1114.96 1321.95 L33.11 1321.69 L15.88 1314.48 L5.37 1312.39 L5.57 1300.6 L3.31 1286.6 L-2.97 29.27 L3.73 18.02 L9.81 11.91 L17.97 2.78 L32.06 0.37" stroke="none" stroke-width="0" fill="#ffffff"></path><path d="M32 0 M32 0 C409.8 -2.54, 789.67 -0.09, 1116.01 0 M32 0 C312.74 -5.78, 593.33 -6.69, 1116.01 0 M1116.01 0 C1137.35 -1.19, 1145.26 12.68, 1148.01 32 M1116.01 0 C1136.46 -2.89, 1143.77 8.52, 1148.01 32 M1148.01 32 C1149.85 363.18, 1147.99 692.56, 1148.01 1288 M1148.01 32 C1138.27 396.16, 1138.8 759.82, 1148.01 1288 M1148.01 1288 C1148.23 1311.75, 1137.53 1323.6, 1116.01 1320 M1148.01 1288 C1146.37 1306.91, 1132.87 1319.43, 1116.01 1320 M1116.01 1320 C767.34 1327.04, 422.15 1324.83, 32 1320 M1116.01 1320 C807.15 1325.51, 499.31 1325.92, 32 1320 M32 1320 C10.89 1316.48, -1.33 1309.65, 0 1288 M32 1320 C13.9 1318.9, 4.22 1311.97, 0 1288 M0 1288 C-9.37 936.45, -9.43 585.55, 0 32 M0 1288 C-2.44 899.2, -1.47 510.73, 0 32 M0 32 C-1.88 13.12, 8.48 0.78, 32 0 M0 32 C-1.43 10.75, 8.48 4.06, 32 0" stroke="transparent" stroke-width="4" fill="none"></path></g><g transform="translate(206.6801389635375 139.52768729641707) rotate(0 107.45401747850201 188.64820846905513)"><text x="0" y="0" font-family="Virgil, Segoe UI Emoji" font-size="301.8371335504882px" fill="#000000" text-anchor="start" style="white-space: pre;" direction="ltr" dominant-baseline="text-before-edge">2</text></g><g transform="translate(559.5714618430675 139.52768729641718) rotate(0 93.26767395218349 188.64820846905508)"><text x="0" y="0" font-family="Virgil, Segoe UI Emoji" font-size="301.8371335504882px" fill="#000000" text-anchor="start" style="white-space: pre;" direction="ltr" dominant-baseline="text-before-edge">5</text></g><g transform="translate(884.0900976699613 139.52768729641718) rotate(0 214.90804129237085 188.64820846905508)"><text x="0" y="0" font-family="Virgil, Segoe UI Emoji" font-size="301.8371335504882px" fill="#000000" text-anchor="start" style="white-space: pre;" direction="ltr" dominant-baseline="text-before-edge">22</text></g><g transform="translate(217.54627396831438 482.42671009772016) rotate(0 96.58788247372513 188.64820846905513)"><text x="0" y="0" font-family="Virgil, Segoe UI Emoji" font-size="301.83713355048815px" fill="#000000" text-anchor="start" style="white-space: pre;" direction="ltr" dominant-baseline="text-before-edge">6</text></g><g transform="translate(504.4861760474405 482.42671009772016) rotate(0 148.35295974781138 188.64820846905513)"><text x="0" y="0" font-family="Virgil, Segoe UI Emoji" font-size="301.8371335504882px" fill="#000000" text-anchor="start" style="white-space: pre;" direction="ltr" dominant-baseline="text-before-edge">12</text></g><g transform="translate(983.5454290809193 482.42671009772016) rotate(0 115.45270988141283 188.64820846905513)"><text x="0" y="0" font-family="Virgil, Segoe UI Emoji" font-size="301.8371335504882px" fill="#000000" text-anchor="start" style="white-space: pre;" direction="ltr" dominant-baseline="text-before-edge">8</text></g><g transform="translate(206.6801389635375 825.325732899023) rotate(0 107.45401747850201 188.64820846905513)"><text x="0" y="0" font-family="Virgil, Segoe UI Emoji" font-size="301.8371335504882px" fill="#000000" text-anchor="start" style="white-space: pre;" direction="ltr" dominant-baseline="text-before-edge">2</text></g><g transform="translate(571.6449479723815 825.325732899023) rotate(0 81.19418782286994 188.64820846905513)"><text x="0" y="0" font-family="Virgil, Segoe UI Emoji" font-size="301.8371335504882px" fill="#000000" text-anchor="start" style="white-space: pre;" direction="ltr" dominant-baseline="text-before-edge">7</text></g><g transform="translate(991.5441214838302 825.325732899023) rotate(0 107.45401747850201 188.64820846905513)"><text x="0" y="0" font-family="Virgil, Segoe UI Emoji" font-size="301.8371335504882px" fill="#000000" text-anchor="start" style="white-space: pre;" direction="ltr" dominant-baseline="text-before-edge">2</text></g></svg>